# xmcd CD database file
#
# Track frame offsets:
#	150
#	12802
#	27075
#	44547
#	58827
#	70380
#	81295
#	93772
#	110190
#	120797
#	134562
#	146195
#	165505
#	177832
#	191657
#	200870
#	211250
#	223145
#	234270
#	246837
#	259710
#	273165
#	282172
#	293572
#
# Disc length: 4017 seconds
#
# Revision: 2
# Processed by: cddbd v1.5.2PL0 Copyright (c) Steve Scherf et al.
# Submitted via: Fey Extractor 
#
DISCID=690faf18
DTITLE=Big Joe Williams - Shake Your Boogie - Shake Your Boogie
DYEAR=1990
DGENRE=Blues
TTITLE0=Big Joe Williams - Shake Your Boogie - Sloppy Drunk Blues
TTITLE1=Big Joe Williams - Shake Your Boogie - Yo Yo Blues
TTITLE2=Big Joe Williams - Shake Your Boogie - President Roosevelt
TTITLE3=Big Joe Williams - Shake Your Boogie - Forty Four Blues
TTITLE4=Big Joe Williams - Shake Your Boogie - Greystone Blues
TTITLE5=Big Joe Williams - Shake Your Boogie - I Want My Crown
TTITLE6=Big Joe Williams - Shake Your Boogie - Mean Step Father
TTITLE7=Big Joe Williams - Shake Your Boogie - Brother James
TTITLE8=Big Joe Williams - Shake Your Boogie - Shake Your Boogie
TTITLE9=Big Joe Williams - Shake Your Boogie - Vitamin A Blues
TTITLE10=Big Joe Williams - Shake Your Boogie - She Left Me A Mule To Ride
TTITLE11=Big Joe Williams - Shake Your Boogie - So Glad
TTITLE12=Big Joe Williams - Shake Your Boogie - Louisiana Bound
TTITLE13=Big Joe Williams - Shake Your Boogie - Killing Floor Blues
TTITLE14=Big Joe Williams - Shake Your Boogie - Throw The Boogie Woogie
TTITLE15=Big Joe Williams - Shake Your Boogie - Dirt Road Blues
TTITLE16=Big Joe Williams - Shake Your Boogie - Montreal Blues
TTITLE17=Big Joe Williams - Shake Your Boogie - Take Me Out Of The Bottom
TTITLE18=Big Joe Williams - Shake Your Boogie - Thinking Of What They Did To Me
TTITLE19=Big Joe Williams - Shake Your Boogie - The Death Of Dr. Martin Luther King
TTITLE20=Big Joe Williams - Shake Your Boogie - Army Man In Vietnam
TTITLE21=Big Joe Williams - Shake Your Boogie - Creole Queen
TTITLE22=Big Joe Williams - Shake Your Boogie - Remember Way Back
TTITLE23=Big Joe Williams - Shake Your Boogie - King Jesus
EXTD=YEAR: 1990
EXTT0=
EXTT1=
EXTT2=
EXTT3=
EXTT4=
EXTT5=
EXTT6=
EXTT7=
EXTT8=
EXTT9=
EXTT10=
EXTT11=
EXTT12=
EXTT13=
EXTT14=
EXTT15=
EXTT16=
EXTT17=
EXTT18=
EXTT19=
EXTT20=
EXTT21=
EXTT22=
EXTT23=
PLAYORDER=
